<svg xmlns="http://www.w3.org/2000/svg" width="61" height="17" viewBox="0 0 61 17">
    <g fill="#FFF" fill-rule="nonzero" opacity=".602">
        <path d="M7.174 0h-4.65a.658.658 0 0 0-.638.576L.005 13.172c-.038.249.145.473.383.473h2.22a.658.658 0 0 0 .639-.577l.507-3.397a.657.657 0 0 1 .638-.577h1.472c3.063 0 4.831-1.566 5.293-4.669.208-1.357.009-2.424-.593-3.17C9.904.433 8.731 0 7.174 0zm.537 4.6c-.254 1.763-1.53 1.763-2.762 1.763h-.702l.493-3.292a.395.395 0 0 1 .382-.345h.322c.84 0 1.632 0 2.041.505.244.302.32.75.226 1.37zM22.076 5.04h-2.292a.404.404 0 0 0-.394.348l-.101.664-.16-.24c-.497-.747-1.603-.996-2.707-.996-2.532 0-4.695 1.987-5.117 4.775-.219 1.391.093 2.72.854 3.648.698.853 1.698 1.208 2.887 1.208 2.04 0 3.172-1.36 3.172-1.36l-.103.66a.409.409 0 0 0 .394.48h2.064a.673.673 0 0 0 .657-.583l1.238-8.128a.407.407 0 0 0-.392-.477zm-3.194 4.62c-.222 1.358-1.26 2.268-2.586 2.268-.665 0-1.197-.22-1.539-.64-.338-.416-.467-1.009-.36-1.668.207-1.345 1.264-2.286 2.569-2.286.65 0 1.18.224 1.528.647.35.427.488 1.023.388 1.68zM34.108 4.816h-2.336a.679.679 0 0 0-.559.293l-3.222 4.707-1.366-4.523a.676.676 0 0 0-.647-.477h-2.296a.402.402 0 0 0-.384.53l2.573 7.49-2.419 3.386a.401.401 0 0 0 .33.633h2.334a.675.675 0 0 0 .554-.287l7.77-11.122a.4.4 0 0 0-.332-.63zM40.885 0h-4.65a.658.658 0 0 0-.639.576l-1.88 12.596c-.038.249.144.473.382.473h2.386a.46.46 0 0 0 .446-.404l.534-3.57a.657.657 0 0 1 .638-.577h1.472c3.064 0 4.831-1.566 5.293-4.669.21-1.357.009-2.424-.593-3.17C43.614.433 42.442 0 40.885 0zm.537 4.6c-.254 1.763-1.529 1.763-2.762 1.763h-.701l.493-3.292a.393.393 0 0 1 .382-.345h.321c.84 0 1.632 0 2.042.505.244.302.318.75.225 1.37zM55.784 5.04h-2.29a.402.402 0 0 0-.394.348L53 6.052l-.161-.24c-.496-.747-1.602-.996-2.706-.996-2.533 0-4.695 1.987-5.116 4.775-.219 1.391.091 2.72.853 3.648.7.853 1.697 1.208 2.886 1.208 2.04 0 3.172-1.36 3.172-1.36l-.102.66a.409.409 0 0 0 .395.48h2.064a.672.672 0 0 0 .656-.583l1.24-8.128a.41.41 0 0 0-.396-.477zm-3.195 4.62c-.22 1.358-1.26 2.268-2.585 2.268-.664 0-1.198-.22-1.539-.64-.339-.416-.466-1.009-.36-1.668.208-1.345 1.263-2.286 2.568-2.286.651 0 1.18.224 1.529.647.35.427.489 1.023.387 1.68zM58.576.346l-1.585 12.826c-.031.249.12.473.317.473h1.594c.265 0 .49-.244.53-.577L60.997.473c.031-.248-.12-.473-.317-.473h-1.785c-.158 0-.293.147-.318.346z"/>
    </g>
</svg>
